<svg version="1.1" xmlns="http://www.w3.org/2000/svg" xmlns:xlink="http://www.w3.org/1999/xlink" width="544" height="427"><defs/><g><g/><g/><g/><g/><g/><g/><g><rect fill="white" stroke="none" x="0" y="0" width="544" height="427"/></g><g/><g><path fill="none" stroke="black" paint-order="fill stroke markers" d=" M 44.631447682160164 55.049635120999994 L 44.631447682160164 427.492270361" stroke-miterlimit="10" stroke-width="1.3612669416666667" stroke-dasharray="12.565541,5.445067766666667"/><path fill="none" stroke="black" paint-order="fill stroke markers" d=" M 496.61913013426954 55.049635120999994 L 496.61913013426954 427.492270361" stroke-miterlimit="10" stroke-width="1.3612669416666667" stroke-dasharray="12.565541,5.445067766666667"/></g><g><path fill="none" stroke="none"/><g><path fill="white" stroke="black" paint-order="fill stroke markers" d=" M 8.167601650000002 10.944586211000003 L 81.09529371432032 10.944586211000003 L 81.09529371432032 55.049635120999994 L 8.167601650000002 55.049635120999994 L 8.167601650000002 10.944586211000003 Z" stroke-miterlimit="10" stroke-width="2.613632528" stroke-dasharray=""/></g><g><g/><text fill="black" stroke="none" font-family="sans-serif" font-size="11pt" font-style="normal" font-weight="normal" text-decoration="normal" x="25.891297230500008" y="38.71443182099999" text-anchor="start" dominant-baseline="alphabetic">Client</text></g><path fill="none" stroke="none"/><g><path fill="white" stroke="black" paint-order="fill stroke markers" d=" M 457.30633085503905 10.944586211000003 L 535.9319294135 10.944586211000003 L 535.9319294135 55.049635120999994 L 457.30633085503905 55.049635120999994 L 457.30633085503905 10.944586211000003 Z" stroke-miterlimit="10" stroke-width="2.613632528" stroke-dasharray=""/></g><g><g/><text fill="black" stroke="none" font-family="sans-serif" font-size="11pt" font-style="normal" font-weight="normal" text-decoration="normal" x="475.03002643553907" y="38.71443182099999" text-anchor="start" dominant-baseline="alphabetic">Server</text></g></g><g><g><g><rect fill="white" stroke="none" x="147.30890428723828" y="87.720041721" width="246.63276924195313" height="21.23576429"/></g><text fill="black" stroke="none" font-family="sans-serif" font-size="11pt" font-style="normal" font-weight="normal" text-decoration="normal" x="149.75918478223826" y="102.42172469100001" text-anchor="start" dominant-baseline="alphabetic">F0: ClientId, ClientPubKey, ClientSalt</text></g><g><path fill="none" stroke="black" paint-order="fill stroke markers" d=" M 44.631447682160164 108.95580601099999 L 493.8965962509362 108.95580601099999" stroke-miterlimit="10" stroke-width="1.3612669416666667" stroke-dasharray=""/><g transform="translate(496.61913013426954,108.95580601099999) translate(-496.61913013426954,-108.95580601099999)"><path fill="black" stroke="none" paint-order="stroke fill markers" d=" M 483.00646071760286 102.14947130266665 L 496.61913013426954 108.95580601099999 L 483.00646071760286 115.76214071933333 Z"/></g></g><g><g><rect fill="white" stroke="none" x="138.76204454602734" y="133.458610961" width="263.726488724375" height="21.23576429"/></g><text fill="black" stroke="none" font-family="sans-serif" font-size="11pt" font-style="normal" font-weight="normal" text-decoration="normal" x="141.21232504102733" y="148.16029393099998" text-anchor="start" dominant-baseline="alphabetic">F1: ServerId, ServerPubKey, ServerSalt</text></g><g><path fill="none" stroke="black" paint-order="fill stroke markers" d=" M 496.61913013426954 154.694375251 L 47.3539815654935 154.694375251" stroke-miterlimit="10" stroke-width="1.3612669416666667" stroke-dasharray=""/><g transform="translate(44.631447682160164,154.694375251) translate(-44.631447682160164,-154.694375251)"><path fill="black" stroke="none" paint-order="stroke fill markers" d=" M 58.244117098826834 147.88804054266666 L 44.631447682160164 154.694375251 L 58.244117098826834 161.50070995933334 Z"/></g></g><g><g><rect fill="white" stroke="none" x="175.2795387476875" y="179.197180201" width="190.6915003210547" height="21.23576429"/></g><text fill="black" stroke="none" font-family="sans-serif" font-size="11pt" font-style="normal" font-weight="normal" text-decoration="normal" x="177.72981924268748" y="193.898863171" text-anchor="start" dominant-baseline="alphabetic">F2: ClientAuth, ClientToken?</text></g><g><path fill="none" stroke="black" paint-order="fill stroke markers" d=" M 44.631447682160164 200.432944491 L 493.8965962509362 200.432944491" stroke-miterlimit="10" stroke-width="1.3612669416666667" stroke-dasharray=""/><g transform="translate(496.61913013426954,200.432944491) translate(-496.61913013426954,-200.432944491)"><path fill="black" stroke="none" paint-order="stroke fill markers" d=" M 483.00646071760286 193.62660978266666 L 496.61913013426954 200.432944491 L 483.00646071760286 207.23927919933334 Z"/></g></g><path fill="white" stroke="black" paint-order="fill stroke markers" d=" M 496.61913013426954 243.721233236 L 488.45152848426955 243.721233236 M 52.79904933216017 224.93574944099998 L 473.74984551426957 224.93574944099998 L 488.45152848426955 239.637432411 L 488.45152848426955 262.506717031 L 52.79904933216017 262.506717031 L 52.79904933216017 224.93574944099998 M 473.74984551426957 224.93574944099998 L 473.74984551426957 239.637432411 L 488.45152848426955 239.637432411" stroke-miterlimit="10" stroke-width="1.3612669416666667" stroke-dasharray=""/><g><text fill="black" stroke="none" font-family="sans-serif" font-size="11pt" font-style="normal" font-weight="normal" text-decoration="normal" x="75.6683339521602" y="247.80503406099996" text-anchor="start" dominant-baseline="alphabetic">ClientAuth = sha256_hmac(SharedSecret).hash(ServerSalt)</text></g><g><g><rect fill="white" stroke="none" x="218.88010942639843" y="287.009521981" width="103.49035896363281" height="21.23576429"/></g><text fill="black" stroke="none" font-family="sans-serif" font-size="11pt" font-style="normal" font-weight="normal" text-decoration="normal" x="221.33038992139842" y="301.71120495099996" text-anchor="start" dominant-baseline="alphabetic">F3: ServerAuth</text></g><g><path fill="none" stroke="black" paint-order="fill stroke markers" d=" M 496.61913013426954 308.245286271 L 47.3539815654935 308.245286271" stroke-miterlimit="10" stroke-width="1.3612669416666667" stroke-dasharray=""/><g transform="translate(44.631447682160164,308.245286271) translate(-44.631447682160164,-308.245286271)"><path fill="black" stroke="none" paint-order="stroke fill markers" d=" M 58.244117098826834 301.43895156266666 L 44.631447682160164 308.245286271 L 58.244117098826834 315.05162097933334 Z"/></g></g><path fill="white" stroke="black" paint-order="fill stroke markers" d=" M 44.631447682160164 351.533575016 L 52.799049332160166 351.533575016 M 52.799049332160166 332.748091221 L 473.74981499669144 332.748091221 L 488.4514979666914 347.44977419099996 L 488.4514979666914 370.319058811 L 52.799049332160166 370.319058811 L 52.799049332160166 332.748091221 M 473.74981499669144 332.748091221 L 473.74981499669144 347.44977419099996 L 488.4514979666914 347.44977419099996" stroke-miterlimit="10" stroke-width="1.3612669416666667" stroke-dasharray=""/><g><text fill="black" stroke="none" font-family="sans-serif" font-size="11pt" font-style="normal" font-weight="normal" text-decoration="normal" x="75.66833395216014" y="355.61737584099996" text-anchor="start" dominant-baseline="alphabetic">ServerAuth = sha256_hmac(SharedSecret).hash(ClientSalt)</text></g></g><g/><g/></g></svg>